<?xml version="1.0" standalone="no"?>
<!DOCTYPE svg PUBLIC "-//W3C//DTD SVG 20010904//EN"
 "http://www.w3.org/TR/2001/REC-SVG-20010904/DTD/svg10.dtd">
<svg version="1.0" xmlns="http://www.w3.org/2000/svg"
 width="70.000000pt" height="78.000000pt" viewBox="0 0 70.000000 78.000000"
 preserveAspectRatio="xMidYMid meet">

<g transform="translate(0.000000,78.000000) scale(0.100000,-0.100000)"
fill="#FFF" stroke="none">
<path d="M526 717 c-32 -42 -91 -77 -130 -77 -23 0 -25 2 -16 26 12 32 13 74
1 74 -5 0 -16 -11 -25 -25 -9 -13 -30 -32 -48 -41 -27 -14 -41 -15 -100 -5
-81 13 -135 3 -164 -31 l-19 -23 24 20 c20 18 38 20 140 20 81 0 123 4 141 14
24 14 24 13 10 -5 -8 -10 -19 -22 -25 -26 -5 -4 1 -8 15 -9 67 -4 119 4 162
25 l47 22 -13 -30 c-17 -42 -75 -86 -122 -92 l-39 -5 49 20 c49 20 106 63 61
46 -112 -43 -279 -54 -328 -22 -14 9 -29 17 -32 17 -11 0 -4 -28 10 -40 22
-18 18 -30 -10 -30 -29 0 -46 27 -38 61 6 24 6 24 -15 5 -30 -26 -28 -58 6
-91 l27 -28 -32 17 c-35 18 -49 50 -38 88 5 18 4 20 -4 8 -16 -22 -13 -72 4
-97 9 -13 31 -30 51 -39 32 -15 34 -19 29 -53 -5 -35 -5 -34 9 7 17 53 41 80
83 98 64 27 173 7 173 -32 0 -8 4 -13 9 -10 5 3 15 -2 22 -12 13 -15 12 -16
-3 -4 -14 11 -18 10 -27 -7 -6 -11 -8 -27 -5 -35 8 -20 -10 -21 -26 -1 -18 22
-43 18 -68 -10 -12 -14 -29 -25 -37 -25 -20 0 -19 9 3 34 17 20 17 20 -11 2
-23 -14 -31 -15 -43 -5 -12 10 -14 9 -9 -7 3 -10 -3 -2 -13 20 l-18 38 -12
-26 c-7 -15 -12 -40 -12 -56 0 -15 -6 -30 -12 -33 -7 -2 -10 -7 -7 -11 3 -3
32 3 65 13 32 11 71 22 87 25 15 4 27 13 27 21 0 15 34 30 50 20 18 -11 10
-53 -13 -72 -13 -10 -23 -26 -21 -36 1 -9 -6 -22 -17 -27 -10 -6 -19 -16 -19
-23 -1 -7 -17 -24 -37 -39 -20 -16 -30 -28 -22 -28 8 0 20 5 27 12 6 6 14 9
17 6 3 -3 -13 -17 -37 -31 -24 -14 -57 -42 -74 -63 -32 -41 -58 -84 -50 -84 7
0 126 72 126 76 0 2 -8 1 -17 -2 -32 -10 51 56 127 101 74 45 97 54 85 35 -3
-5 0 -10 7 -10 7 -1 2 -7 -12 -16 -21 -12 -21 -14 -4 -9 12 3 43 -4 70 -15 26
-12 62 -19 78 -18 l31 4 -28 14 c-23 11 -26 16 -15 25 8 5 28 31 46 57 18 25
44 56 58 67 l27 21 -34 0 c-19 -1 -59 -9 -89 -20 -38 -13 -60 -16 -72 -9 -23
13 -16 24 22 37 25 9 30 8 30 -5 0 -14 2 -14 14 3 20 26 0 30 -49 10 -20 -9
-41 -13 -46 -10 -5 3 -9 23 -9 45 0 22 -7 53 -15 68 -14 28 -14 29 17 35 78
16 132 97 126 192 l-3 49 -29 -38z m-287 -167 c-51 -6 -105 -30 -95 -41 3 -2
-4 -15 -14 -29 -17 -22 -19 -23 -25 -7 -15 38 64 87 140 85 l50 -1 -56 -7z
m-92 -157 c-3 -10 -5 -4 -5 12 0 17 2 24 5 18 2 -7 2 -21 0 -30z m268 -33 c3
-10 19 -30 35 -44 24 -19 26 -25 14 -30 -21 -8 -32 0 -55 38 -20 33 -25 24 -9
-18 7 -20 6 -24 -5 -20 -9 4 -18 -3 -24 -19 -12 -30 -43 -49 -66 -41 -14 6
-13 10 8 33 14 14 28 36 31 48 8 26 44 73 56 73 5 0 11 -9 15 -20z m155 -59
c-8 -5 -31 -11 -50 -15 l-35 -6 35 14 c41 17 75 21 50 7z m-110 -36 c-14 -8
-29 -14 -35 -14 -5 0 1 6 15 14 14 8 30 14 35 14 6 0 -1 -6 -15 -14z"/>
<path d="M294 395 c-3 -8 -4 -20 -2 -27 5 -15 -97 -82 -112 -73 -5 3 -10 -2
-11 -12 0 -14 -2 -14 -9 5 -13 30 -22 28 -14 -3 9 -37 -4 -30 -15 8 -9 31 -9
30 -9 -15 l1 -47 56 36 c120 77 155 103 138 103 -9 0 -17 5 -17 10 0 6 7 10
16 10 8 0 12 5 9 10 -9 15 -25 12 -31 -5z"/>
<path d="M275 312 c-15 -11 -17 -32 -2 -26 8 3 14 11 14 19 0 8 -1 15 -1 15
-1 0 -5 -4 -11 -8z"/>
</g>
</svg>
